# xmcd
#
# Track frame offsets: 
#        150
#        15596
#        26291
#        41975
#        59753
#        72439
#        89142
#        105067
#        116246
#        137420
#        148803
#        162794
#        176361
#        188716
#
# Disc length: 2687 seconds
#
# Revision: 0
# Processed by: cddbd v1.5.2PL0 Copyright (c) Steve Scherf et al.
# Submitted via: ExactAudioCopy v0.99pb5
#
DISCID=c10a7d0e
DTITLE=Mobb Deep - The Infamous Archives
DYEAR=2007
DGENRE=Rap
TTITLE0=Cobra
TTITLE1=Mobb Run The Rap Game
TTITLE2=Gangstas Roll
TTITLE3=Bump That feat. 50 Cent and Big Noyd
TTITLE4=My Prorites
TTITLE5=Backwards
TTITLE6=Gettin' Moved On
TTITLE7=U Know We Don't Stop
TTITLE8=Rock With Us feat. Busta Rhymes
TTITLE9=All Mine
TTITLE10=Never Talk
TTITLE11=We Don't Love Them Hoes
TTITLE12=Make The Hits feat. The Alchemist
TTITLE13=Baby Baby
EXTD=
EXTT0=
EXTT1=
EXTT2=
EXTT3=
EXTT4=
EXTT5=
EXTT6=
EXTT7=
EXTT8=
EXTT9=
EXTT10=
EXTT11=
EXTT12=
EXTT13=
PLAYORDER=
